<mxfile host="app.diagrams.net" modified="2023-12-04T13:47:13.734Z" agent="Mozilla/5.0 (Windows NT 10.0; Win64; x64) AppleWebKit/537.36 (KHTML, like Gecko) Chrome/119.0.0.0 Safari/537.36" version="22.1.5" etag="Rg1r-EmaYAt3WEn9C8V0" type="github">
  <diagram name="Halaman-1" id="0KanamrfrFxnqKmA-B9_">
    <mxGraphModel>
      <root>
        <mxCell id="0" />
        <mxCell id="1" parent="0" />
      </root>
    </mxGraphModel>
  </diagram>
</mxfile>
